<?xml version="1.0" encoding="utf-8"?>
<!-- Generator: Adobe Illustrator 14.0.0, SVG Export Plug-In . SVG Version: 6.00 Build 43363)  -->
<!DOCTYPE svg PUBLIC "-//W3C//DTD SVG 1.1//EN" "http://www.w3.org/Graphics/SVG/1.1/DTD/svg11.dtd">
<svg version="1.1" id="Warstwa_1" xmlns="http://www.w3.org/2000/svg" xmlns:xlink="http://www.w3.org/1999/xlink" x="0px" y="0px"
	 width="340.158px" height="141.731px" viewBox="0 0 340.158 141.731" enable-background="new 0 0 340.158 141.731"
	 xml:space="preserve">
<g>
	<g>
		<path fill="#D20D77" d="M136.048,51.438h-7.451c-2.899,0-4.349,1.463-4.349,4.389v7.651h10.509v0.805h-10.509v13.326l-6.442,0.041
			V59.493c0-1.345,0.227-2.563,0.686-3.667c0.454-1.1,1.113-2.031,1.972-2.794c0.859-0.768,1.899-1.358,3.122-1.776
			c1.217-0.414,2.58-0.623,4.084-0.623h8.379V51.438z"/>
		<path fill="#124592" d="M215.91,51.479v26.171h-6.443V51.479h-7.651v-0.81h21.741v0.81H215.91z"/>
		<path fill="#D20D77" d="M182.006,67.585c0-1.477,0.25-2.835,0.745-4.066c0.495-1.236,1.19-2.299,2.076-3.181
			c0.886-0.891,1.949-1.576,3.199-2.076c1.249-0.495,2.612-0.745,4.089-0.745c1.449,0,2.767,0.24,3.967,0.727
			c1.19,0.482,2.212,1.163,3.058,2.05c0.845,0.891,1.504,1.949,1.972,3.18c0.473,1.236,0.704,2.608,0.704,4.112v9.864h-0.322
			c-1.204,0-2.24-0.236-3.099-0.704c-0.858-0.473-1.518-1.136-1.972-1.995c-1.05,1.936-2.713,2.899-4.994,2.899
			c-1.317,0-2.549-0.255-3.703-0.764c-1.158-0.509-2.153-1.223-3.003-2.136c-0.845-0.913-1.509-1.98-1.99-3.203
			C182.247,70.329,182.006,69.007,182.006,67.585z M188.448,67.585c0,2.898,0.323,5.152,0.968,6.761
			c0.646,1.613,1.545,2.417,2.699,2.417s2.054-0.804,2.694-2.417c0.646-1.608,0.968-3.862,0.968-6.761
			c0-2.926-0.322-5.202-0.968-6.829c-0.641-1.622-1.54-2.436-2.694-2.436s-2.054,0.813-2.699,2.436
			C188.771,62.383,188.448,64.659,188.448,67.585z"/>
		<path fill="#D20D77" d="M137.016,67.585c0-1.477,0.25-2.835,0.745-4.066c0.5-1.236,1.19-2.299,2.076-3.181
			c0.886-0.891,1.949-1.576,3.199-2.076c1.249-0.495,2.612-0.745,4.089-0.745c2.844,0,5.079,0.858,6.701,2.576
			c1.622,1.722,2.436,4.08,2.436,7.088h-12.804v0.404c0,2.604,0.505,4.662,1.514,6.18c1.004,1.518,2.394,2.276,4.166,2.276
			c0.723,0,1.427-0.128,2.112-0.387c0.687-0.254,1.313-0.6,1.896-1.045c0.572-0.44,1.086-0.973,1.526-1.59
			c0.445-0.618,0.772-1.291,0.985-2.013h0.809c-0.672,2.094-1.826,3.721-3.462,4.893c-1.64,1.168-3.599,1.75-5.879,1.75
			c-1.477,0-2.84-0.246-4.089-0.745c-1.25-0.496-2.313-1.187-3.199-2.072s-1.576-1.949-2.076-3.185
			C137.266,70.416,137.016,69.062,137.016,67.585z M150.505,66.376c-0.055-2.549-0.367-4.534-0.944-5.938
			c-0.577-1.413-1.391-2.118-2.436-2.118c-1.077,0-1.927,0.705-2.559,2.118c-0.631,1.403-0.985,3.389-1.067,5.938H150.505z"/>
		<path fill="#124592" d="M220.426,67.585c0-1.477,0.245-2.835,0.741-4.066c0.495-1.236,1.19-2.299,2.071-3.181
			c0.891-0.891,1.954-1.576,3.203-2.076c1.25-0.495,2.613-0.745,4.09-0.745c2.844,0,5.075,0.858,6.701,2.576
			c1.627,1.722,2.436,4.08,2.436,7.088h-12.804v0.404c0,2.604,0.504,4.662,1.509,6.18c1.009,1.518,2.398,2.276,4.171,2.276
			c0.723,0,1.431-0.128,2.112-0.387c0.687-0.254,1.313-0.6,1.891-1.045c0.581-0.44,1.09-0.973,1.531-1.59
			c0.445-0.618,0.772-1.291,0.99-2.013h0.804c-0.672,2.094-1.826,3.721-3.462,4.893c-1.64,1.168-3.603,1.75-5.879,1.75
			c-1.477,0-2.84-0.246-4.09-0.745c-1.249-0.496-2.313-1.187-3.203-2.072c-0.881-0.886-1.576-1.949-2.071-3.185
			C220.671,70.416,220.426,69.062,220.426,67.585z M233.911,66.376c-0.055-2.549-0.368-4.534-0.949-5.938
			c-0.572-1.413-1.386-2.118-2.431-2.118c-1.077,0-1.932,0.705-2.559,2.118c-0.632,1.403-0.985,3.389-1.067,5.938H233.911z"/>
		<path fill="#D20D77" d="M170.665,51.519c0-1.021,0.332-1.854,0.99-2.498c0.654-0.646,1.536-0.968,2.636-0.968
			s1.98,0.322,2.64,0.968c0.654,0.645,0.986,1.477,0.986,2.498c0,1.019-0.332,1.85-0.986,2.495c-0.659,0.645-1.54,0.968-2.64,0.968
			s-1.981-0.323-2.636-0.968C170.997,53.368,170.665,52.537,170.665,51.519z M171.27,63.519c0-1.749,0.513-3.117,1.531-4.107
			c1.022-0.995,2.417-1.49,4.188-1.49h0.323v19.729h-6.043V63.519z"/>
		<path fill="#D20D77" d="M160.86,53.65c0-1.745,0.509-3.112,1.531-4.107c1.018-0.991,2.417-1.49,4.188-1.49h0.323v29.597h-6.043
			V53.65z"/>
		<path fill="#124592" d="M255.066,67.058c1.29,0.968,2.239,1.922,2.857,2.858c0.618,0.94,0.927,1.895,0.927,2.862
			c0,1.449-0.572,2.622-1.713,3.521s-2.621,1.35-4.448,1.35h-9.623v-0.805h8.614c0.618,0,1.132-0.154,1.531-0.463
			c0.405-0.31,0.604-0.705,0.604-1.19c0-0.805-0.618-1.663-1.854-2.576l-4.911-3.703c-2.522-1.904-3.785-3.813-3.785-5.721
			c0-1.449,0.568-2.622,1.713-3.521c1.141-0.899,2.621-1.35,4.448-1.35h8.415v0.805h-7.406c-0.618,0-1.127,0.154-1.531,0.468
			c-0.4,0.31-0.604,0.7-0.604,1.186c0,0.805,0.618,1.663,1.854,2.576L255.066,67.058z"/>
		<path fill="#124592" d="M271.918,57.921v0.805h-3.544V73.02c0,1.208,0.31,2.148,0.927,2.816c0.618,0.673,1.49,1.009,2.617,1.009
			h0.2v0.805h-1.613c-2.653,0-4.684-0.7-6.074-2.095c-1.399-1.396-2.095-3.422-2.095-6.079V57.921c0-1.745,0.509-3.112,1.531-4.107
			c1.018-0.995,2.412-1.49,4.188-1.49h0.318v5.598H271.918z"/>
		<g>
			<path fill="#124592" d="M118.655,83.989c0.045,0.025,0.095,0.073,0.154,0.146l4.493,5.846c-0.014-0.096-0.022-0.187-0.022-0.277
				c-0.005-0.086-0.005-0.173-0.005-0.257v-5.493h0.918v7.756h-0.531c-0.082,0-0.15-0.012-0.205-0.041
				c-0.059-0.031-0.113-0.075-0.168-0.147l-4.484-5.836c0.009,0.086,0.014,0.177,0.014,0.264c0.005,0.086,0.009,0.163,0.009,0.238
				v5.522h-0.922v-7.756h0.541C118.541,83.953,118.609,83.967,118.655,83.989z"/>
			<path fill="#124592" d="M127.874,84.505c0,0.094-0.019,0.185-0.055,0.267c-0.041,0.081-0.091,0.154-0.154,0.211
				c-0.064,0.07-0.137,0.118-0.219,0.156c-0.081,0.032-0.172,0.048-0.268,0.048c-0.091,0-0.178-0.016-0.259-0.048
				c-0.082-0.038-0.155-0.086-0.219-0.156c-0.063-0.057-0.108-0.13-0.146-0.211c-0.036-0.082-0.054-0.173-0.054-0.267
				c0-0.091,0.018-0.182,0.054-0.266c0.037-0.086,0.082-0.159,0.146-0.223s0.137-0.111,0.219-0.149
				c0.081-0.034,0.168-0.053,0.259-0.053c0.096,0,0.187,0.019,0.268,0.053c0.082,0.038,0.154,0.086,0.219,0.149
				c0.063,0.063,0.113,0.137,0.154,0.223C127.855,84.323,127.874,84.414,127.874,84.505z M127.66,86.228v5.481h-0.963v-5.481H127.66
				z"/>
			<path fill="#124592" d="M132.177,86.141c0.327,0,0.631,0.058,0.908,0.166c0.277,0.109,0.519,0.271,0.718,0.475
				c0.205,0.207,0.364,0.466,0.478,0.769c0.113,0.309,0.168,0.656,0.168,1.045c0,0.152-0.014,0.25-0.045,0.302
				c-0.037,0.048-0.096,0.077-0.187,0.077h-3.648c0.009,0.341,0.054,0.644,0.141,0.902c0.086,0.257,0.204,0.47,0.358,0.643
				c0.15,0.173,0.332,0.298,0.541,0.384c0.209,0.087,0.445,0.125,0.704,0.125c0.241,0,0.45-0.024,0.627-0.082
				c0.173-0.057,0.323-0.115,0.45-0.184c0.123-0.063,0.231-0.123,0.313-0.18c0.086-0.055,0.159-0.081,0.223-0.081
				c0.077,0,0.141,0.026,0.182,0.091l0.272,0.35c-0.118,0.146-0.264,0.272-0.427,0.375c-0.168,0.108-0.346,0.195-0.536,0.261
				c-0.187,0.068-0.382,0.123-0.586,0.159c-0.2,0.032-0.4,0.048-0.6,0.048c-0.378,0-0.728-0.062-1.05-0.191
				c-0.318-0.127-0.596-0.313-0.827-0.561c-0.231-0.248-0.413-0.555-0.545-0.918c-0.127-0.365-0.195-0.781-0.195-1.254
				c0-0.384,0.063-0.74,0.177-1.07c0.118-0.336,0.286-0.625,0.509-0.865c0.219-0.243,0.486-0.437,0.805-0.572
				C131.422,86.211,131.781,86.141,132.177,86.141z M132.199,86.85c-0.468,0-0.831,0.134-1.1,0.407
				c-0.269,0.263-0.432,0.641-0.5,1.115h2.985c0-0.221-0.031-0.428-0.096-0.613c-0.059-0.187-0.149-0.351-0.268-0.484
				c-0.118-0.136-0.264-0.238-0.437-0.312C132.612,86.886,132.417,86.85,132.199,86.85z"/>
			<path fill="#124592" d="M137.61,84.505c0,0.094-0.014,0.185-0.055,0.267c-0.036,0.081-0.086,0.154-0.149,0.211
				c-0.063,0.07-0.137,0.118-0.218,0.156c-0.087,0.032-0.173,0.048-0.269,0.048c-0.091,0-0.182-0.016-0.259-0.048
				c-0.082-0.038-0.154-0.086-0.219-0.156c-0.063-0.057-0.113-0.13-0.149-0.211c-0.036-0.082-0.055-0.173-0.055-0.267
				c0-0.091,0.019-0.182,0.055-0.266c0.036-0.086,0.086-0.159,0.149-0.223c0.064-0.063,0.137-0.111,0.219-0.149
				c0.077-0.034,0.168-0.053,0.259-0.053c0.096,0,0.182,0.019,0.269,0.053c0.081,0.038,0.154,0.086,0.218,0.149
				s0.113,0.137,0.149,0.223C137.597,84.323,137.61,84.414,137.61,84.505z M137.397,86.228v5.481h-0.964v-5.481H137.397z"/>
			<path fill="#124592" d="M139.746,91.709v-5.481h0.572c0.141,0,0.223,0.065,0.264,0.202l0.073,0.595
				c0.24-0.266,0.504-0.477,0.799-0.641c0.296-0.156,0.632-0.243,1.018-0.243c0.301,0,0.568,0.048,0.796,0.148
				c0.227,0.1,0.418,0.24,0.572,0.425c0.154,0.179,0.269,0.397,0.35,0.654c0.077,0.259,0.118,0.543,0.118,0.854v3.487h-0.963v-3.487
				c0-0.413-0.096-0.74-0.286-0.965c-0.187-0.232-0.478-0.351-0.868-0.351c-0.281,0-0.55,0.073-0.795,0.209
				c-0.25,0.137-0.478,0.325-0.687,0.557v4.037H139.746z"/>
			<path fill="#124592" d="M145.612,86.228h0.758c0.078,0,0.142,0.022,0.195,0.062c0.046,0.038,0.082,0.086,0.101,0.141l1.05,3.525
				c0.031,0.132,0.059,0.259,0.081,0.377c0.027,0.123,0.05,0.246,0.063,0.366c0.032-0.12,0.064-0.243,0.101-0.366
				c0.036-0.118,0.072-0.245,0.113-0.377l1.159-3.548c0.018-0.055,0.05-0.101,0.095-0.137c0.041-0.034,0.101-0.055,0.169-0.055
				h0.418c0.072,0,0.131,0.021,0.177,0.055c0.05,0.036,0.082,0.082,0.1,0.137l1.127,3.548c0.041,0.127,0.077,0.25,0.109,0.373
				c0.031,0.127,0.059,0.25,0.086,0.365c0.019-0.115,0.046-0.243,0.073-0.375c0.027-0.127,0.059-0.247,0.091-0.363l1.072-3.525
				c0.018-0.06,0.05-0.103,0.104-0.146c0.05-0.034,0.108-0.057,0.177-0.057h0.723l-1.772,5.481h-0.763
				c-0.096,0-0.159-0.063-0.195-0.184l-1.209-3.717c-0.031-0.082-0.055-0.161-0.072-0.25c-0.019-0.086-0.036-0.173-0.055-0.255
				c-0.019,0.082-0.036,0.169-0.055,0.255c-0.019,0.089-0.041,0.173-0.072,0.259l-1.228,3.708c-0.041,0.12-0.113,0.184-0.223,0.184
				h-0.722L145.612,86.228z"/>
			<path fill="#124592" d="M159.292,91.709h-0.427c-0.096,0-0.173-0.012-0.228-0.041c-0.059-0.031-0.095-0.091-0.113-0.187
				l-0.109-0.509c-0.145,0.132-0.286,0.25-0.422,0.348c-0.137,0.104-0.282,0.195-0.432,0.262c-0.154,0.072-0.313,0.122-0.486,0.159
				c-0.173,0.036-0.363,0.055-0.568,0.055c-0.213,0-0.413-0.027-0.6-0.087c-0.186-0.063-0.35-0.149-0.486-0.271
				c-0.136-0.122-0.245-0.272-0.326-0.454c-0.082-0.182-0.119-0.397-0.119-0.647c0-0.218,0.06-0.425,0.178-0.629
				c0.118-0.198,0.309-0.38,0.572-0.532c0.269-0.159,0.618-0.284,1.045-0.384c0.428-0.1,0.954-0.149,1.572-0.149v-0.43
				c0-0.427-0.091-0.754-0.272-0.975c-0.182-0.218-0.45-0.332-0.809-0.332c-0.236,0-0.432,0.034-0.591,0.091
				c-0.164,0.063-0.3,0.125-0.418,0.202c-0.118,0.075-0.219,0.144-0.305,0.2c-0.082,0.06-0.168,0.091-0.25,0.091
				c-0.063,0-0.122-0.018-0.172-0.057c-0.046-0.029-0.087-0.07-0.114-0.125l-0.173-0.307c0.3-0.293,0.627-0.509,0.978-0.654
				c0.35-0.146,0.74-0.216,1.163-0.216c0.309,0,0.581,0.05,0.817,0.147c0.241,0.104,0.44,0.243,0.604,0.425
				c0.159,0.182,0.281,0.397,0.363,0.654c0.087,0.257,0.127,0.539,0.127,0.848V91.709z M156.789,91.123
				c0.173,0,0.327-0.019,0.468-0.055c0.141-0.032,0.272-0.079,0.4-0.146c0.122-0.063,0.24-0.139,0.354-0.229
				c0.114-0.089,0.228-0.192,0.332-0.307v-1.136c-0.44,0-0.817,0.034-1.131,0.086c-0.31,0.055-0.56,0.128-0.755,0.221
				c-0.195,0.091-0.336,0.2-0.427,0.322c-0.086,0.121-0.132,0.262-0.132,0.414c0,0.147,0.022,0.268,0.068,0.377
				c0.05,0.103,0.113,0.188,0.19,0.257c0.082,0.07,0.173,0.113,0.282,0.146C156.548,91.104,156.666,91.123,156.789,91.123z"/>
			<path fill="#124592" d="M165.227,86.643c0,0.066-0.009,0.13-0.036,0.193c-0.023,0.062-0.06,0.123-0.101,0.171l-2.962,3.952h2.989
				v0.75h-4.13v-0.397c0-0.05,0.014-0.103,0.036-0.166c0.027-0.063,0.06-0.122,0.104-0.182l2.98-3.98h-2.948v-0.756h4.066V86.643z"
				/>
			<path fill="#124592" d="M168.657,93.329c-0.032,0.07-0.073,0.129-0.119,0.173c-0.05,0.043-0.122,0.063-0.227,0.063h-0.713
				l0.999-2.175l-2.263-5.163h0.836c0.082,0,0.146,0.022,0.195,0.062c0.046,0.043,0.082,0.086,0.1,0.141l1.468,3.45
				c0.032,0.08,0.063,0.157,0.082,0.239c0.027,0.081,0.046,0.161,0.068,0.245c0.022-0.084,0.045-0.164,0.072-0.245
				c0.027-0.082,0.055-0.164,0.087-0.243l1.427-3.446c0.018-0.06,0.054-0.103,0.108-0.146c0.051-0.034,0.109-0.057,0.168-0.057
				h0.772L168.657,93.329z"/>
			<path fill="#124592" d="M174.313,86.228v5.889c0,0.22-0.027,0.425-0.086,0.613c-0.06,0.192-0.15,0.358-0.273,0.499
				c-0.127,0.139-0.286,0.248-0.481,0.33c-0.195,0.081-0.432,0.12-0.708,0.12c-0.119,0-0.223-0.009-0.323-0.027
				c-0.096-0.016-0.195-0.045-0.291-0.082l0.041-0.518c0.009-0.043,0.022-0.077,0.05-0.091c0.023-0.009,0.064-0.019,0.118-0.019
				c0.027,0,0.06,0,0.091,0c0.032,0,0.073,0,0.118,0c0.282,0,0.482-0.063,0.604-0.195c0.118-0.134,0.178-0.348,0.178-0.636v-5.884
				H174.313z M174.531,84.505c0,0.094-0.018,0.185-0.059,0.267c-0.036,0.081-0.087,0.154-0.15,0.211
				c-0.063,0.07-0.136,0.118-0.223,0.156c-0.081,0.032-0.168,0.048-0.263,0.048c-0.092,0-0.183-0.016-0.264-0.048
				c-0.078-0.038-0.15-0.086-0.214-0.156c-0.063-0.057-0.113-0.13-0.15-0.211c-0.036-0.082-0.054-0.173-0.054-0.267
				c0-0.091,0.018-0.182,0.054-0.266c0.037-0.086,0.087-0.159,0.15-0.223s0.136-0.111,0.214-0.149
				c0.081-0.034,0.172-0.053,0.264-0.053c0.095,0,0.182,0.019,0.263,0.053c0.087,0.038,0.159,0.086,0.223,0.149
				s0.114,0.137,0.15,0.223C174.514,84.323,174.531,84.414,174.531,84.505z"/>
			<path fill="#124592" d="M176.64,91.709v-5.481h0.572c0.142,0,0.223,0.065,0.26,0.202l0.077,0.595
				c0.236-0.266,0.504-0.477,0.8-0.641c0.295-0.156,0.631-0.243,1.018-0.243c0.3,0,0.567,0.048,0.795,0.148
				c0.227,0.1,0.418,0.24,0.572,0.425c0.154,0.179,0.269,0.397,0.35,0.654c0.078,0.259,0.118,0.543,0.118,0.854v3.487h-0.963v-3.487
				c0-0.413-0.096-0.74-0.282-0.965c-0.19-0.232-0.481-0.351-0.872-0.351c-0.286,0-0.55,0.073-0.795,0.209
				c-0.25,0.137-0.478,0.325-0.687,0.557v4.037H176.64z"/>
			<path fill="#124592" d="M184.741,93.329c-0.032,0.07-0.073,0.129-0.123,0.173c-0.05,0.043-0.123,0.063-0.223,0.063h-0.713
				l0.999-2.175l-2.263-5.163h0.832c0.086,0,0.149,0.022,0.195,0.062c0.05,0.043,0.082,0.086,0.104,0.141l1.468,3.45
				c0.031,0.08,0.059,0.157,0.081,0.239c0.022,0.081,0.046,0.161,0.063,0.245c0.027-0.084,0.051-0.164,0.078-0.245
				c0.022-0.082,0.054-0.164,0.086-0.243l1.422-3.446c0.022-0.06,0.06-0.103,0.113-0.146c0.051-0.034,0.105-0.057,0.169-0.057h0.768
				L184.741,93.329z"/>
			<path fill="#124592" d="M193.724,91.796c-0.432,0-0.764-0.123-1-0.361c-0.231-0.243-0.345-0.591-0.345-1.043v-3.355h-0.663
				c-0.06,0-0.109-0.021-0.146-0.053c-0.041-0.033-0.06-0.091-0.06-0.163v-0.382l0.899-0.111l0.223-1.694
				c0.005-0.058,0.027-0.101,0.068-0.135c0.041-0.033,0.091-0.047,0.15-0.047h0.49v1.885h1.567v0.7h-1.567v3.292
				c0,0.225,0.055,0.401,0.164,0.511c0.113,0.111,0.259,0.171,0.436,0.171c0.101,0,0.187-0.017,0.259-0.046
				c0.078-0.027,0.142-0.052,0.195-0.084c0.055-0.036,0.096-0.063,0.137-0.091c0.036-0.027,0.072-0.041,0.1-0.041
				c0.051,0,0.096,0.032,0.137,0.091l0.281,0.461c-0.168,0.152-0.367,0.273-0.6,0.364C194.214,91.75,193.974,91.796,193.724,91.796z
				"/>
			<path fill="#124592" d="M198.921,86.141c0.328,0,0.627,0.058,0.909,0.166c0.272,0.109,0.514,0.271,0.718,0.475
				c0.2,0.207,0.359,0.466,0.473,0.769c0.113,0.309,0.173,0.656,0.173,1.045c0,0.152-0.019,0.25-0.05,0.302
				c-0.032,0.048-0.096,0.077-0.187,0.077h-3.644c0.004,0.341,0.054,0.644,0.141,0.902c0.086,0.257,0.204,0.47,0.354,0.643
				c0.154,0.173,0.331,0.298,0.545,0.384c0.204,0.087,0.44,0.125,0.699,0.125c0.241,0,0.45-0.024,0.628-0.082
				c0.172-0.057,0.322-0.115,0.449-0.184c0.127-0.063,0.231-0.123,0.318-0.18c0.086-0.055,0.159-0.081,0.218-0.081
				c0.082,0,0.141,0.026,0.187,0.091l0.268,0.35c-0.118,0.146-0.259,0.272-0.427,0.375c-0.163,0.108-0.341,0.195-0.531,0.261
				c-0.191,0.068-0.387,0.123-0.587,0.159c-0.204,0.032-0.404,0.048-0.6,0.048c-0.381,0-0.731-0.062-1.049-0.191
				c-0.318-0.127-0.596-0.313-0.827-0.561c-0.236-0.248-0.414-0.555-0.546-0.918c-0.127-0.365-0.195-0.781-0.195-1.254
				c0-0.384,0.06-0.74,0.178-1.07c0.118-0.336,0.286-0.625,0.504-0.865c0.223-0.243,0.491-0.437,0.809-0.572
				C198.163,86.211,198.521,86.141,198.921,86.141z M198.939,86.85c-0.464,0-0.831,0.134-1.095,0.407
				c-0.269,0.263-0.437,0.641-0.5,1.115h2.98c0-0.221-0.031-0.428-0.091-0.613c-0.059-0.187-0.154-0.351-0.272-0.484
				c-0.118-0.136-0.264-0.238-0.437-0.312C199.357,86.886,199.162,86.85,198.939,86.85z"/>
			<path fill="#124592" d="M206.209,87.132c-0.045,0.077-0.113,0.12-0.204,0.12c-0.05,0-0.113-0.021-0.182-0.06
				c-0.068-0.04-0.154-0.086-0.25-0.132c-0.1-0.054-0.218-0.095-0.359-0.136c-0.136-0.043-0.3-0.062-0.481-0.062
				c-0.163,0-0.309,0.019-0.44,0.062c-0.127,0.041-0.241,0.096-0.332,0.168c-0.096,0.072-0.163,0.159-0.213,0.255
				c-0.051,0.093-0.073,0.197-0.073,0.313c0,0.139,0.041,0.254,0.123,0.35c0.081,0.091,0.187,0.173,0.322,0.24
				c0.132,0.071,0.286,0.13,0.454,0.185c0.168,0.05,0.341,0.106,0.522,0.166c0.178,0.062,0.354,0.127,0.522,0.199
				c0.169,0.073,0.318,0.159,0.455,0.267c0.132,0.113,0.24,0.243,0.322,0.397c0.077,0.156,0.118,0.348,0.118,0.567
				c0,0.257-0.046,0.486-0.132,0.702c-0.091,0.211-0.227,0.402-0.404,0.557c-0.173,0.157-0.391,0.277-0.646,0.373
				c-0.259,0.086-0.554,0.132-0.891,0.132c-0.381,0-0.727-0.06-1.035-0.185c-0.313-0.123-0.577-0.286-0.791-0.479l0.228-0.37
				c0.027-0.046,0.063-0.079,0.1-0.109c0.041-0.022,0.096-0.036,0.159-0.036s0.132,0.027,0.204,0.077
				c0.073,0.05,0.164,0.109,0.264,0.166c0.104,0.063,0.228,0.12,0.373,0.168c0.145,0.055,0.331,0.077,0.55,0.077
				c0.19,0,0.35-0.022,0.495-0.072c0.136-0.048,0.254-0.116,0.35-0.198c0.096-0.081,0.164-0.182,0.209-0.286
				c0.045-0.106,0.068-0.225,0.068-0.348c0-0.154-0.041-0.281-0.123-0.379c-0.082-0.096-0.19-0.182-0.322-0.252
				c-0.132-0.068-0.286-0.132-0.459-0.182c-0.168-0.055-0.346-0.107-0.522-0.169c-0.182-0.057-0.354-0.12-0.527-0.197
				c-0.173-0.072-0.322-0.161-0.454-0.274c-0.137-0.114-0.241-0.253-0.322-0.416c-0.082-0.161-0.123-0.359-0.123-0.596
				c0-0.216,0.045-0.413,0.132-0.608c0.082-0.19,0.209-0.359,0.377-0.509c0.163-0.144,0.368-0.262,0.608-0.348
				c0.246-0.084,0.519-0.13,0.832-0.13c0.359,0,0.682,0.058,0.973,0.171c0.281,0.111,0.531,0.271,0.74,0.47L206.209,87.132z"/>
			<path fill="#124592" d="M210.076,91.796c-0.432,0-0.764-0.123-1-0.361c-0.231-0.243-0.345-0.591-0.345-1.043v-3.355h-0.664
				c-0.055,0-0.104-0.021-0.146-0.053c-0.04-0.033-0.059-0.091-0.059-0.163v-0.382l0.895-0.111l0.228-1.694
				c0.005-0.058,0.027-0.101,0.068-0.135c0.041-0.033,0.091-0.047,0.149-0.047h0.491v1.885h1.567v0.7h-1.567v3.292
				c0,0.225,0.055,0.401,0.163,0.511c0.114,0.111,0.259,0.171,0.437,0.171c0.1,0,0.187-0.017,0.264-0.046
				c0.072-0.027,0.136-0.052,0.19-0.084c0.055-0.036,0.101-0.063,0.137-0.091s0.072-0.041,0.1-0.041c0.05,0,0.096,0.032,0.137,0.091
				l0.281,0.461c-0.168,0.152-0.368,0.273-0.6,0.364C210.566,91.75,210.325,91.796,210.076,91.796z"/>
			<path fill="#124592" d="M215.837,93.565v-7.338h0.577c0.137,0,0.223,0.065,0.259,0.202l0.082,0.649
				c0.231-0.284,0.5-0.514,0.8-0.69c0.304-0.173,0.649-0.257,1.045-0.257c0.313,0,0.6,0.057,0.854,0.18
				c0.254,0.122,0.473,0.298,0.654,0.538c0.182,0.234,0.317,0.527,0.418,0.877c0.095,0.353,0.145,0.754,0.145,1.204
				c0,0.406-0.054,0.781-0.163,1.129c-0.109,0.35-0.264,0.652-0.464,0.904c-0.204,0.259-0.449,0.457-0.745,0.6
				c-0.295,0.15-0.627,0.221-0.99,0.221c-0.341,0-0.632-0.053-0.868-0.164c-0.24-0.113-0.454-0.272-0.641-0.479v2.424H215.837z
				 M218.277,86.906c-0.313,0-0.587,0.077-0.823,0.216c-0.236,0.148-0.454,0.351-0.654,0.616v2.653
				c0.183,0.238,0.373,0.406,0.582,0.502c0.214,0.1,0.45,0.143,0.709,0.143c0.509,0,0.899-0.182,1.172-0.54
				c0.277-0.368,0.414-0.889,0.414-1.565c0-0.35-0.032-0.656-0.096-0.915c-0.063-0.257-0.154-0.466-0.272-0.634
				c-0.123-0.164-0.264-0.284-0.44-0.357C218.695,86.95,218.5,86.906,218.277,86.906z"/>
			<path fill="#124592" d="M222.462,91.709v-5.481h0.554c0.104,0,0.178,0.022,0.214,0.062c0.041,0.038,0.068,0.108,0.082,0.204
				l0.063,0.854c0.19-0.382,0.423-0.68,0.699-0.896c0.272-0.211,0.596-0.32,0.968-0.32c0.154,0,0.291,0.019,0.414,0.05
				c0.122,0.034,0.236,0.084,0.341,0.146l-0.128,0.716c-0.022,0.089-0.077,0.141-0.163,0.141c-0.055,0-0.132-0.022-0.236-0.057
				s-0.25-0.048-0.437-0.048c-0.336,0-0.617,0.096-0.84,0.289c-0.228,0.199-0.414,0.481-0.568,0.854v3.487H222.462z"/>
			<path fill="#124592" d="M229.641,86.141c0.331,0,0.636,0.058,0.913,0.166c0.277,0.109,0.518,0.271,0.718,0.475
				c0.204,0.207,0.359,0.466,0.473,0.769c0.113,0.309,0.173,0.656,0.173,1.045c0,0.152-0.019,0.25-0.051,0.302
				c-0.031,0.048-0.09,0.077-0.182,0.077h-3.648c0.01,0.341,0.055,0.644,0.142,0.902c0.086,0.257,0.204,0.47,0.354,0.643
				c0.154,0.173,0.336,0.298,0.545,0.384c0.209,0.087,0.44,0.125,0.704,0.125c0.241,0,0.45-0.024,0.622-0.082
				c0.178-0.057,0.327-0.115,0.45-0.184c0.127-0.063,0.231-0.123,0.318-0.18c0.086-0.055,0.159-0.081,0.218-0.081
				c0.082,0,0.141,0.026,0.187,0.091l0.272,0.35c-0.123,0.146-0.264,0.272-0.432,0.375c-0.164,0.108-0.341,0.195-0.531,0.261
				c-0.191,0.068-0.387,0.123-0.587,0.159c-0.199,0.032-0.404,0.048-0.604,0.048c-0.378,0-0.723-0.062-1.046-0.191
				c-0.317-0.127-0.595-0.313-0.826-0.561c-0.232-0.248-0.414-0.555-0.546-0.918c-0.127-0.365-0.195-0.781-0.195-1.254
				c0-0.384,0.06-0.74,0.178-1.07c0.118-0.336,0.286-0.625,0.509-0.865c0.218-0.243,0.486-0.437,0.804-0.572
				C228.891,86.211,229.245,86.141,229.641,86.141z M229.663,86.85c-0.463,0-0.831,0.134-1.095,0.407
				c-0.269,0.263-0.437,0.641-0.5,1.115h2.98c0-0.221-0.027-0.428-0.091-0.613c-0.063-0.187-0.15-0.351-0.268-0.484
				c-0.123-0.136-0.269-0.238-0.437-0.312C230.081,86.886,229.886,86.85,229.663,86.85z"/>
			<path fill="#124592" d="M233.793,91.709v-5.481h0.573c0.136,0,0.227,0.065,0.263,0.202l0.073,0.595
				c0.24-0.266,0.504-0.477,0.8-0.641c0.295-0.156,0.631-0.243,1.018-0.243c0.3,0,0.567,0.048,0.795,0.148
				c0.228,0.1,0.418,0.24,0.572,0.425c0.154,0.179,0.269,0.397,0.351,0.654c0.077,0.259,0.117,0.543,0.117,0.854v3.487h-0.963
				v-3.487c0-0.413-0.096-0.74-0.281-0.965c-0.191-0.232-0.482-0.351-0.873-0.351c-0.281,0-0.55,0.073-0.795,0.209
				c-0.25,0.137-0.477,0.325-0.686,0.557v4.037H233.793z"/>
			<path fill="#124592" d="M244.489,91.709h-0.432c-0.092,0-0.169-0.012-0.228-0.041c-0.06-0.031-0.096-0.091-0.114-0.187
				l-0.104-0.509c-0.146,0.132-0.287,0.25-0.423,0.348c-0.137,0.104-0.282,0.195-0.437,0.262c-0.149,0.072-0.313,0.122-0.481,0.159
				c-0.173,0.036-0.363,0.055-0.572,0.055c-0.214,0-0.414-0.027-0.6-0.087c-0.183-0.063-0.346-0.149-0.481-0.271
				c-0.137-0.122-0.246-0.272-0.328-0.454c-0.081-0.182-0.122-0.397-0.122-0.647c0-0.218,0.059-0.425,0.182-0.629
				c0.118-0.198,0.309-0.38,0.572-0.532c0.264-0.159,0.613-0.284,1.045-0.384c0.428-0.1,0.954-0.149,1.572-0.149v-0.43
				c0-0.427-0.091-0.754-0.272-0.975c-0.182-0.218-0.454-0.332-0.809-0.332c-0.236,0-0.432,0.034-0.591,0.091
				c-0.164,0.063-0.3,0.125-0.418,0.202c-0.118,0.075-0.218,0.144-0.305,0.2c-0.082,0.06-0.168,0.091-0.25,0.091
				c-0.067,0-0.122-0.018-0.173-0.057c-0.05-0.029-0.086-0.07-0.113-0.125l-0.177-0.307c0.304-0.293,0.631-0.509,0.981-0.654
				c0.35-0.146,0.735-0.216,1.163-0.216c0.309,0,0.581,0.05,0.817,0.147c0.236,0.104,0.437,0.243,0.6,0.425
				c0.164,0.182,0.287,0.397,0.368,0.654c0.087,0.257,0.128,0.539,0.128,0.848V91.709z M241.985,91.123
				c0.173,0,0.327-0.019,0.468-0.055c0.141-0.032,0.272-0.079,0.396-0.146c0.127-0.063,0.245-0.139,0.359-0.229
				c0.113-0.089,0.222-0.192,0.331-0.307v-1.136c-0.44,0-0.822,0.034-1.131,0.086c-0.31,0.055-0.563,0.128-0.759,0.221
				c-0.195,0.091-0.337,0.2-0.423,0.322c-0.091,0.121-0.132,0.262-0.132,0.414c0,0.147,0.022,0.268,0.068,0.377
				c0.05,0.103,0.113,0.188,0.19,0.257c0.077,0.07,0.173,0.113,0.282,0.146C241.744,91.104,241.858,91.123,241.985,91.123z"/>
			<path fill="#124592" d="M248.26,91.796c-0.437,0-0.768-0.123-0.999-0.361c-0.232-0.243-0.351-0.591-0.351-1.043v-3.355h-0.658
				c-0.06,0-0.109-0.021-0.15-0.053c-0.036-0.033-0.055-0.091-0.055-0.163v-0.382l0.896-0.111l0.223-1.694
				c0.009-0.058,0.031-0.101,0.072-0.135c0.037-0.033,0.087-0.047,0.15-0.047h0.486v1.885h1.567v0.7h-1.567v3.292
				c0,0.225,0.055,0.401,0.168,0.511c0.113,0.111,0.259,0.171,0.432,0.171c0.104,0,0.19-0.017,0.264-0.046
				c0.072-0.027,0.136-0.052,0.19-0.084c0.055-0.036,0.1-0.063,0.141-0.091c0.036-0.027,0.068-0.041,0.101-0.041
				c0.05,0,0.095,0.032,0.132,0.091l0.281,0.461c-0.163,0.152-0.363,0.273-0.6,0.364C248.751,91.75,248.505,91.796,248.26,91.796z"
				/>
			<path fill="#124592" d="M255.312,91.709h-0.427c-0.096,0-0.173-0.012-0.232-0.041c-0.054-0.031-0.091-0.091-0.108-0.187
				l-0.109-0.509c-0.146,0.132-0.286,0.25-0.423,0.348c-0.136,0.104-0.281,0.195-0.432,0.262c-0.154,0.072-0.313,0.122-0.485,0.159
				c-0.173,0.036-0.364,0.055-0.573,0.055s-0.409-0.027-0.6-0.087c-0.182-0.063-0.345-0.149-0.481-0.271
				c-0.137-0.122-0.245-0.272-0.327-0.454s-0.123-0.397-0.123-0.647c0-0.218,0.06-0.425,0.178-0.629
				c0.122-0.198,0.313-0.38,0.577-0.532c0.268-0.159,0.613-0.284,1.04-0.384c0.432-0.1,0.959-0.149,1.577-0.149v-0.43
				c0-0.427-0.092-0.754-0.273-0.975c-0.182-0.218-0.449-0.332-0.809-0.332c-0.231,0-0.432,0.034-0.591,0.091
				c-0.163,0.063-0.3,0.125-0.418,0.202c-0.118,0.075-0.218,0.144-0.304,0.2c-0.082,0.06-0.168,0.091-0.25,0.091
				c-0.068,0-0.123-0.018-0.173-0.057c-0.05-0.029-0.086-0.07-0.113-0.125l-0.173-0.307c0.3-0.293,0.627-0.509,0.977-0.654
				s0.736-0.216,1.163-0.216c0.31,0,0.582,0.05,0.818,0.147c0.236,0.104,0.436,0.243,0.604,0.425
				c0.158,0.182,0.281,0.397,0.363,0.654s0.127,0.539,0.127,0.848V91.709z M252.808,91.123c0.173,0,0.327-0.019,0.469-0.055
				c0.141-0.032,0.272-0.079,0.395-0.146c0.128-0.063,0.246-0.139,0.359-0.229c0.113-0.089,0.223-0.192,0.332-0.307v-1.136
				c-0.441,0-0.822,0.034-1.132,0.086c-0.309,0.055-0.563,0.128-0.759,0.221c-0.19,0.091-0.332,0.2-0.423,0.322
				c-0.091,0.121-0.132,0.262-0.132,0.414c0,0.147,0.023,0.268,0.073,0.377c0.046,0.103,0.109,0.188,0.187,0.257
				c0.082,0.07,0.172,0.113,0.281,0.146C252.567,91.104,252.681,91.123,252.808,91.123z"/>
			<path fill="#124592" d="M258.492,83.742v7.967h-0.964v-7.967H258.492z"/>
			<path fill="#124592" d="M260.841,91.709v-5.481h0.572c0.137,0,0.223,0.065,0.26,0.202l0.077,0.595
				c0.236-0.266,0.499-0.477,0.8-0.641c0.29-0.156,0.631-0.243,1.018-0.243c0.3,0,0.563,0.048,0.795,0.148
				c0.228,0.1,0.418,0.24,0.572,0.425c0.15,0.179,0.269,0.397,0.35,0.654c0.078,0.259,0.118,0.543,0.118,0.854v3.487h-0.963v-3.487
				c0-0.413-0.096-0.74-0.286-0.965c-0.187-0.232-0.478-0.351-0.868-0.351c-0.286,0-0.55,0.073-0.795,0.209
				c-0.25,0.137-0.477,0.325-0.687,0.557v4.037H260.841z"/>
			<path fill="#124592" d="M268.942,93.329c-0.036,0.07-0.073,0.129-0.123,0.173c-0.05,0.043-0.127,0.063-0.227,0.063h-0.714
				l1.004-2.175l-2.263-5.163h0.832c0.082,0,0.149,0.022,0.195,0.062c0.045,0.043,0.082,0.086,0.104,0.141l1.463,3.45
				c0.036,0.08,0.06,0.157,0.086,0.239c0.023,0.081,0.046,0.161,0.063,0.245c0.023-0.084,0.051-0.164,0.073-0.245
				c0.027-0.082,0.055-0.164,0.086-0.243l1.423-3.446c0.022-0.06,0.059-0.103,0.113-0.146c0.05-0.034,0.109-0.057,0.168-0.057h0.768
				L268.942,93.329z"/>
		</g>
	</g>
	<path fill="#124592" d="M95.401,48.798c-0.114-0.28-0.195-0.466-0.232-0.546c-0.004-0.007-0.009-0.016-0.009-0.022
		c-0.005-0.009-0.005-0.012-0.005-0.012c-0.002,0.003-0.432,3.349-9.582,7.675c-3.271,1.551-6.611,3.099-9.601,5.152
		c-4.314,2.967-6.985,7.703-7.29,12.989c-0.06,1.036-0.016,2.077,0.118,3.104c0.002,0.014-0.007,0.019-0.003,0.034
		c0.01,0.043,0.019,0.084,0.027,0.13c1.899,8.721,9.737,12.692,10.104,12.865c-3.42-2.72-5.46-9.544,7.681-14.773
		C103.541,68.662,96.618,51.871,95.401,48.798z"/>
	<path fill="#D20D77" d="M100.349,64.979c-0.118-0.397-0.24-0.793-0.358-1.19c-0.101-0.318-0.341-1.188-0.354-1.192
		c-0.459,5.3-3.138,10.315-7.665,12.896c-2.756,1.574-5.777,2.621-8.54,4.185c-0.034,0.019-0.07,0.032-0.106,0.052
		c-2.771,1.529-5.107,3.585-5.034,5.857c-0.005-0.007-0.01-0.012-0.012-0.017c0.002,0.027,0.012,0.058,0.012,0.087
		c0.022,0.361,0.1,0.729,0.252,1.102c0.005,0.016,0.012,0.032,0.016,0.046c0.01,0.021,0.014,0.04,0.023,0.061
		c0.007,0.019,0.018,0.034,0.027,0.053c2.303,5.786,15.747,8.362,21.645-3.924C102.988,77.292,102.082,70.764,100.349,64.979z"/>
</g>
</svg>
